<?xml version="1.0" encoding="UTF-8"?>
<svg xmlns="http://www.w3.org/2000/svg" baseProfile="tiny" version="1.2" viewBox="0 0 4000 3000">
  <!-- Generator: Adobe Illustrator 30.1.0, SVG Export Plug-In . SVG Version: 2.1.1 Build 136)  -->
  <rect x="425" y="600" width="3150" height="1800" fill="#bf0a30"/>
  <g>
    <rect x="425" y="738.45" width="3150" height="138.45" fill="#f3f3fa"/>
    <rect x="425" y="1015.38" width="3150" height="138.45" fill="#f3f3fa"/>
    <rect x="425" y="1292.31" width="3150" height="138.45" fill="#f3f3fa"/>
    <rect x="425" y="1569.24" width="3150" height="138.45" fill="#f3f3fa"/>
    <rect x="425" y="1846.17" width="3150" height="138.45" fill="#f3f3fa"/>
    <rect x="425" y="2123.1" width="3150" height="138.45" fill="#f3f3fa"/>
  </g>
  <rect x="425" y="600" width="1367.67" height="969.22" fill="#002868"/>
  <g>
    <polygon points="1723.61 872 1688.13 872.01 1674.84 837.68 1661.21 872.01 1625.92 872.02 1655.62 895.38 1642.8 932.42 1674.76 911.51 1706.73 932.42 1693.9 895.38 1723.61 872" fill="#f3f3fa"/>
    <polygon points="816.78 872 781.3 872.01 768.01 837.68 754.38 872.01 719.09 872.02 748.78 895.38 735.97 932.42 767.93 911.51 799.9 932.42 787.07 895.38 816.78 872" fill="#f3f3fa"/>
    <polygon points="1043.48 872 1008.01 872.01 994.71 837.68 981.09 872.01 945.8 872.02 975.49 895.38 962.68 932.42 994.64 911.51 1026.6 932.42 1013.78 895.38 1043.48 872" fill="#f3f3fa"/>
    <polygon points="1270.19 872 1234.72 872.01 1221.42 837.68 1207.8 872.01 1172.51 872.02 1202.2 895.38 1189.39 932.42 1221.35 911.51 1253.31 932.42 1240.49 895.38 1270.19 872" fill="#f3f3fa"/>
    <polygon points="1496.9 872 1461.43 872.01 1448.13 837.68 1434.5 872.01 1399.21 872.02 1428.91 895.38 1416.1 932.42 1448.06 911.51 1480.02 932.42 1467.19 895.38 1496.9 872" fill="#f3f3fa"/>
    <polygon points="590.07 872 554.6 872.01 541.3 837.68 527.67 872.01 492.38 872.02 522.08 895.38 509.26 932.42 541.23 911.51 573.19 932.42 560.36 895.38 590.07 872" fill="#f3f3fa"/>
    <polygon points="1723.61 1066.46 1688.13 1066.46 1674.84 1032.13 1661.21 1066.47 1625.92 1066.48 1655.62 1089.84 1642.8 1126.88 1674.76 1105.97 1706.73 1126.88 1693.9 1089.84 1723.61 1066.46" fill="#f3f3fa"/>
    <polygon points="816.78 1066.46 781.3 1066.46 768.01 1032.13 754.38 1066.47 719.09 1066.48 748.78 1089.84 735.97 1126.88 767.93 1105.97 799.9 1126.88 787.07 1089.84 816.78 1066.46" fill="#f3f3fa"/>
    <polygon points="1043.48 1066.46 1008.01 1066.46 994.71 1032.13 981.09 1066.47 945.8 1066.48 975.49 1089.84 962.68 1126.88 994.64 1105.97 1026.6 1126.88 1013.78 1089.84 1043.48 1066.46" fill="#f3f3fa"/>
    <polygon points="1270.19 1066.46 1234.72 1066.46 1221.42 1032.13 1207.8 1066.47 1172.51 1066.48 1202.2 1089.84 1189.39 1126.88 1221.35 1105.97 1253.31 1126.88 1240.49 1089.84 1270.19 1066.46" fill="#f3f3fa"/>
    <polygon points="1496.9 1066.46 1461.43 1066.46 1448.13 1032.13 1434.5 1066.47 1399.21 1066.48 1428.91 1089.84 1416.1 1126.88 1448.06 1105.97 1480.02 1126.88 1467.19 1089.84 1496.9 1066.46" fill="#f3f3fa"/>
    <polygon points="590.07 1066.46 554.6 1066.46 541.3 1032.13 527.67 1066.47 492.38 1066.48 522.08 1089.84 509.26 1126.88 541.23 1105.97 573.19 1126.88 560.36 1089.84 590.07 1066.46" fill="#f3f3fa"/>
    <polygon points="1723.61 1260.91 1688.13 1260.92 1674.84 1226.59 1661.21 1260.92 1625.92 1260.93 1655.62 1284.29 1642.8 1321.33 1674.76 1300.42 1706.73 1321.33 1693.9 1284.29 1723.61 1260.91" fill="#f3f3fa"/>
    <polygon points="816.78 1260.91 781.3 1260.92 768.01 1226.59 754.38 1260.92 719.09 1260.93 748.78 1284.29 735.97 1321.33 767.93 1300.42 799.9 1321.33 787.07 1284.29 816.78 1260.91" fill="#f3f3fa"/>
    <polygon points="1043.48 1260.91 1008.01 1260.92 994.71 1226.59 981.09 1260.92 945.8 1260.93 975.49 1284.29 962.68 1321.33 994.64 1300.42 1026.6 1321.33 1013.78 1284.29 1043.48 1260.91" fill="#f3f3fa"/>
    <polygon points="1270.19 1260.91 1234.72 1260.92 1221.42 1226.59 1207.8 1260.92 1172.51 1260.93 1202.2 1284.29 1189.39 1321.33 1221.35 1300.42 1253.31 1321.33 1240.49 1284.29 1270.19 1260.91" fill="#f3f3fa"/>
    <polygon points="1496.9 1260.91 1461.43 1260.92 1448.13 1226.59 1434.5 1260.92 1399.21 1260.93 1428.91 1284.29 1416.1 1321.33 1448.06 1300.42 1480.02 1321.33 1467.19 1284.29 1496.9 1260.91" fill="#f3f3fa"/>
    <polygon points="590.07 1260.91 554.6 1260.92 541.3 1226.59 527.67 1260.92 492.38 1260.93 522.08 1284.29 509.26 1321.33 541.23 1300.42 573.19 1321.33 560.36 1284.29 590.07 1260.91" fill="#f3f3fa"/>
    <polygon points="1723.61 1455.37 1688.13 1455.37 1674.84 1421.05 1661.21 1455.38 1625.92 1455.39 1655.62 1478.75 1642.8 1515.79 1674.76 1494.88 1706.73 1515.79 1693.9 1478.75 1723.61 1455.37" fill="#f3f3fa"/>
    <polygon points="816.78 1455.37 781.3 1455.37 768.01 1421.05 754.38 1455.38 719.09 1455.39 748.78 1478.75 735.97 1515.79 767.93 1494.88 799.9 1515.79 787.07 1478.75 816.78 1455.37" fill="#f3f3fa"/>
    <polygon points="1043.48 1455.37 1008.01 1455.37 994.71 1421.05 981.09 1455.38 945.8 1455.39 975.49 1478.75 962.68 1515.79 994.64 1494.88 1026.6 1515.79 1013.78 1478.75 1043.48 1455.37" fill="#f3f3fa"/>
    <polygon points="1270.19 1455.37 1234.72 1455.37 1221.42 1421.05 1207.8 1455.38 1172.51 1455.39 1202.2 1478.75 1189.39 1515.79 1221.35 1494.88 1253.31 1515.79 1240.49 1478.75 1270.19 1455.37" fill="#f3f3fa"/>
    <polygon points="1496.9 1455.37 1461.43 1455.37 1448.13 1421.05 1434.5 1455.38 1399.21 1455.39 1428.91 1478.75 1416.1 1515.79 1448.06 1494.88 1480.02 1515.79 1467.19 1478.75 1496.9 1455.37" fill="#f3f3fa"/>
    <polygon points="590.07 1455.37 554.6 1455.37 541.3 1421.05 527.67 1455.38 492.38 1455.39 522.08 1478.75 509.26 1515.79 541.23 1494.88 573.19 1515.79 560.36 1478.75 590.07 1455.37" fill="#f3f3fa"/>
    <polygon points="1723.61 677.55 1688.13 677.55 1674.84 643.22 1661.21 677.56 1625.92 677.56 1655.62 700.93 1642.8 737.97 1674.76 717.06 1706.73 737.97 1693.9 700.93 1723.61 677.55" fill="#f3f3fa"/>
    <polygon points="816.78 677.55 781.3 677.55 768.01 643.22 754.38 677.56 719.09 677.56 748.78 700.93 735.97 737.97 767.93 717.06 799.9 737.97 787.07 700.93 816.78 677.55" fill="#f3f3fa"/>
    <polygon points="1043.48 677.55 1008.01 677.55 994.71 643.22 981.09 677.56 945.8 677.56 975.49 700.93 962.68 737.97 994.64 717.06 1026.6 737.97 1013.78 700.93 1043.48 677.55" fill="#f3f3fa"/>
    <polygon points="1270.19 677.55 1234.72 677.55 1221.42 643.22 1207.8 677.56 1172.51 677.56 1202.2 700.93 1189.39 737.97 1221.35 717.06 1253.31 737.97 1240.49 700.93 1270.19 677.55" fill="#f3f3fa"/>
    <polygon points="1496.9 677.55 1461.43 677.55 1448.13 643.22 1434.5 677.56 1399.21 677.56 1428.91 700.93 1416.1 737.97 1448.06 717.06 1480.02 737.97 1467.19 700.93 1496.9 677.55" fill="#f3f3fa"/>
    <polygon points="590.07 677.55 554.6 677.55 541.3 643.22 527.67 677.56 492.38 677.56 522.08 700.93 509.26 737.97 541.23 717.06 573.19 737.97 560.36 700.93 590.07 677.55" fill="#f3f3fa"/>
    <polygon points="930.13 969.98 894.66 969.99 881.36 935.66 867.73 970 832.44 970 862.14 993.37 849.33 1030.4 881.29 1009.5 913.25 1030.4 900.43 993.37 930.13 969.98" fill="#f3f3fa"/>
    <polygon points="1156.84 969.98 1121.36 969.99 1108.07 935.66 1094.44 970 1059.15 970 1088.85 993.37 1076.03 1030.4 1108 1009.5 1139.96 1030.4 1127.13 993.37 1156.84 969.98" fill="#f3f3fa"/>
    <polygon points="1383.55 969.98 1348.07 969.99 1334.78 935.66 1321.15 970 1285.86 970 1315.55 993.37 1302.74 1030.4 1334.7 1009.5 1366.66 1030.4 1353.84 993.37 1383.55 969.98" fill="#f3f3fa"/>
    <polygon points="1610.25 969.98 1574.78 969.99 1561.48 935.66 1547.86 970 1512.57 970 1542.26 993.37 1529.45 1030.4 1561.41 1009.5 1593.37 1030.4 1580.55 993.37 1610.25 969.98" fill="#f3f3fa"/>
    <polygon points="703.42 969.98 667.95 969.99 654.65 935.66 641.03 970 605.74 970 635.43 993.37 622.62 1030.4 654.58 1009.5 686.54 1030.4 673.72 993.37 703.42 969.98" fill="#f3f3fa"/>
    <polygon points="930.13 1164.12 894.66 1164.13 881.36 1129.8 867.73 1164.13 832.44 1164.14 862.14 1187.5 849.33 1224.54 881.29 1203.63 913.25 1224.54 900.43 1187.5 930.13 1164.12" fill="#f3f3fa"/>
    <polygon points="1156.84 1164.12 1121.36 1164.13 1108.07 1129.8 1094.44 1164.13 1059.15 1164.14 1088.85 1187.5 1076.03 1224.54 1108 1203.63 1139.96 1224.54 1127.13 1187.5 1156.84 1164.12" fill="#f3f3fa"/>
    <polygon points="1383.55 1164.12 1348.07 1164.13 1334.78 1129.8 1321.15 1164.13 1285.86 1164.14 1315.55 1187.5 1302.74 1224.54 1334.7 1203.63 1366.66 1224.54 1353.84 1187.5 1383.55 1164.12" fill="#f3f3fa"/>
    <polygon points="1610.25 1164.12 1574.78 1164.13 1561.48 1129.8 1547.86 1164.13 1512.57 1164.14 1542.26 1187.5 1529.45 1224.54 1561.41 1203.63 1593.37 1224.54 1580.55 1187.5 1610.25 1164.12" fill="#f3f3fa"/>
    <polygon points="703.42 1164.12 667.95 1164.13 654.65 1129.8 641.03 1164.13 605.74 1164.14 635.43 1187.5 622.62 1224.54 654.58 1203.63 686.54 1224.54 673.72 1187.5 703.42 1164.12" fill="#f3f3fa"/>
    <polygon points="930.13 1358.25 894.66 1358.26 881.36 1323.93 867.73 1358.27 832.44 1358.27 862.14 1381.64 849.33 1418.67 881.29 1397.77 913.25 1418.67 900.43 1381.64 930.13 1358.25" fill="#f3f3fa"/>
    <polygon points="1156.84 1358.25 1121.36 1358.26 1108.07 1323.93 1094.44 1358.27 1059.15 1358.27 1088.85 1381.64 1076.03 1418.67 1108 1397.77 1139.96 1418.67 1127.13 1381.64 1156.84 1358.25" fill="#f3f3fa"/>
    <polygon points="1383.55 1358.25 1348.07 1358.26 1334.78 1323.93 1321.15 1358.27 1285.86 1358.27 1315.55 1381.64 1302.74 1418.67 1334.7 1397.77 1366.66 1418.67 1353.84 1381.64 1383.55 1358.25" fill="#f3f3fa"/>
    <polygon points="1610.25 1358.25 1574.78 1358.26 1561.48 1323.93 1547.86 1358.27 1512.57 1358.27 1542.26 1381.64 1529.45 1418.67 1561.41 1397.77 1593.37 1418.67 1580.55 1381.64 1610.25 1358.25" fill="#f3f3fa"/>
    <polygon points="703.42 1358.25 667.95 1358.26 654.65 1323.93 641.03 1358.27 605.74 1358.27 635.43 1381.64 622.62 1418.67 654.58 1397.77 686.54 1418.67 673.72 1381.64 703.42 1358.25" fill="#f3f3fa"/>
    <polygon points="930.13 775.85 894.66 775.86 881.36 741.53 867.73 775.86 832.44 775.87 862.14 799.23 849.33 836.27 881.29 815.36 913.25 836.27 900.43 799.23 930.13 775.85" fill="#f3f3fa"/>
    <polygon points="1156.84 775.85 1121.36 775.86 1108.07 741.53 1094.44 775.86 1059.15 775.87 1088.85 799.23 1076.03 836.27 1108 815.36 1139.96 836.27 1127.13 799.23 1156.84 775.85" fill="#f3f3fa"/>
    <polygon points="1383.55 775.85 1348.07 775.86 1334.78 741.53 1321.15 775.86 1285.86 775.87 1315.55 799.23 1302.74 836.27 1334.7 815.36 1366.66 836.27 1353.84 799.23 1383.55 775.85" fill="#f3f3fa"/>
    <polygon points="1610.25 775.85 1574.78 775.86 1561.48 741.53 1547.86 775.86 1512.57 775.87 1542.26 799.23 1529.45 836.27 1561.41 815.36 1593.37 836.27 1580.55 799.23 1610.25 775.85" fill="#f3f3fa"/>
    <polygon points="703.42 775.85 667.95 775.86 654.65 741.53 641.03 775.86 605.74 775.87 635.43 799.23 622.62 836.27 654.58 815.36 686.54 836.27 673.72 799.23 703.42 775.85" fill="#f3f3fa"/>
  </g>
</svg>