<svg xmlns="http://www.w3.org/2000/svg" version="1.1" xmlns:xlink="http://www.w3.org/1999/xlink" xmlns:svgjs="http://svgjs.com/svgjs" width="66.45" height="66.45"><svg xmlns="http://www.w3.org/2000/svg" width="66.45" height="66.45" viewBox="0 0 66.45 66.45">
  <defs>
    <style>
      .cls-1 {
        fill: #f93610;
      }

      .cls-2, .cls-3 {
        fill: #fff;
      }

      .cls-3 {
        opacity: 0.75;
      }
    </style>
  </defs>
  <g id="SvgjsG1001" data-name="Layer 2">
    <g id="SvgjsG1000" data-name="Layer 1">
      <path class="cls-1" d="M52.14,65.59a207.73,207.73,0,0,1-37.82,0C7.8,64.93,1.53,58.66.87,52.14a206,206,0,0,1,0-37.82C1.53,7.8,7.8,1.53,14.32.87a206,206,0,0,1,37.82,0c6.52.66,12.79,6.93,13.45,13.45a207.73,207.73,0,0,1,0,37.82C64.93,58.66,58.66,64.93,52.14,65.59Z"></path>
      <path class="cls-2" d="M22.11,48.45a3.67,3.67,0,0,1-3.67-3.67V21.55a3.67,3.67,0,0,1,7.34,0V44.78A3.67,3.67,0,0,1,22.11,48.45Z"></path>
      <path class="cls-2" d="M19.83,41.58c-1.22-1.54-.68-4,1.2-5.47l21.5-17c1.88-1.48,4.39-1.45,5.6.09s.68,4-1.2,5.47l-21.5,17C23.55,43.15,21,43.11,19.83,41.58Z"></path>
      <path class="cls-3" d="M45.11,48.45h-.36l-.18,0-.18,0-.17,0L44,48.29l-.17-.06-.17-.06-.16-.08L43.38,48l-.16-.08-.15-.1-.15-.1-.14-.11-.14-.12a1.59,1.59,0,0,1-.13-.13l-.12-.13-.12-.14a.76.76,0,0,1-.11-.14s-.07-.1-.11-.15L42,46.66l-.09-.15-.08-.17a.77.77,0,0,1-.07-.16.87.87,0,0,1-.07-.17l-.06-.17c0-.05,0-.11,0-.17a1.16,1.16,0,0,1,0-.18.51.51,0,0,1,0-.17l0-.18c0-.06,0-.12,0-.18s0-.12,0-.18,0-.12,0-.19,0-.12,0-.18l0-.17a.57.57,0,0,1,0-.18,1.16,1.16,0,0,1,0-.18c0-.06,0-.11,0-.17l.06-.17a1.22,1.22,0,0,1,.07-.17,1.11,1.11,0,0,1,.07-.16l.08-.16.09-.16.09-.15.11-.15a.76.76,0,0,1,.11-.14l.12-.14.12-.13.13-.13.14-.11.14-.11.15-.11.15-.09.16-.09a.8.8,0,0,1,.16-.08l.16-.08.17-.06.17-.06.18,0,.17,0,.18,0,.18,0h.72l.18,0,.18,0,.17,0,.17,0,.18.06.16.06.17.08.16.08.16.09.15.09.14.11.15.11.13.11.14.13.12.13.12.14a1.71,1.71,0,0,1,.11.14l.1.15a1.3,1.3,0,0,1,.1.15l.09.16c0,.05,0,.1.08.16l.07.16.06.17.06.17a1.09,1.09,0,0,1,.05.17c0,.06,0,.12,0,.18l0,.18a1,1,0,0,1,0,.17c0,.06,0,.12,0,.18V45c0,.06,0,.12,0,.18a1.1,1.1,0,0,1,0,.18l0,.17c0,.06,0,.12,0,.18a.84.84,0,0,1-.05.17l-.06.17-.06.17c0,.06,0,.11-.07.16a1.3,1.3,0,0,0-.08.17l-.09.15a.78.78,0,0,1-.1.15l-.1.15a1.71,1.71,0,0,1-.11.14l-.12.14-.12.13-.14.13-.13.12-.15.11-.14.1-.15.1-.16.08-.16.08-.17.08-.16.06-.18.06-.17.05-.17,0-.18,0-.18,0h-.36Z"></path>
    </g>
  </g>
</svg><style>@media (prefers-color-scheme: light) { :root { filter: none; } }
@media (prefers-color-scheme: dark) { :root { filter: none; } }
</style></svg>